<?xml version="1.0" encoding="utf-8"?>
<!-- Generator: Adobe Illustrator 27.5.0, SVG Export Plug-In . SVG Version: 6.00 Build 0)  -->
<svg version="1.1" id="レイヤー_1" xmlns="http://www.w3.org/2000/svg" xmlns:xlink="http://www.w3.org/1999/xlink" x="0px"
	 y="0px" viewBox="0 0 1000 1000" style="enable-background:new 0 0 1000 1000;" xml:space="preserve">
<style type="text/css">
	.st0{fill:#B47F00;}
	.st1{fill:#8CC88C;}
</style>
<g>
	<g id="レイヤー_1_00000105407496090976677080000008216218790883298718_">
		<rect class="st0" width="1000" height="1000"/>
	</g>
	<g id="レイヤー_4">
		<g id="レイヤー_1-2">
			<path class="st1" d="M492.4,305c-102.5,0-158.7,72.9-158.7,108.6c0,35.9,20,62.8,20,107.5s-21.3,88.8-21.3,117.7
				s7.6,149.8,167.3,149.8s167.8-105.3,167.8-146c0-40.5,0-185-49.1-270.8C576,305,558.5,305,492.4,305z"/>
			<path class="st1" d="M512.4,323.2c-22.3-12.1-71.1-81.5-59.7-102.2s29.9-7.1,42.3,35.7"/>
			<path class="st1" d="M493.2,326.5c5.1-24.8,56.7-92.1,80-87.3s15.4,26.6-21.5,51.1"/>
			<path d="M544.2,435.4c12.4,0,22.3,7.4,22.3,28.9c0,20.6-10.1,28.9-22.3,28.9s-22.3-13-22.3-28.9S531.8,435.4,544.2,435.4z"/>
			<path d="M465.4,457.9c-0.3,19.1-12.7,34.6-27.4,34.3s-26.7-10.4-26.3-35.2c0.4-25.9,12.4-34.6,27.4-34.3S465.7,438.8,465.4,457.9
				z"/>
		</g>
	</g>
</g>
</svg>
