<svg xmlns="http://www.w3.org/2000/svg" viewBox="0 0 1000 1000"><defs><style>.cls-1{isolation:isolate;}.cls-2{opacity:0;}.cls-3{fill:#b47f00;}.cls-4{fill:#8cc88c;}.cls-5{mix-blend-mode:overlay;}</style></defs><g class="cls-1"><g id="レイヤー_1" data-name="レイヤー 1" class="cls-2"><rect class="cls-3" width="1000" height="1000"/></g><g id="レイヤー_4" data-name="レイヤー 4"><g id="レイヤー_1-2" data-name="レイヤー 1"><path class="cls-4" d="M492.4084,304.982c-102.4864,0-158.6641,72.8792-158.6641,108.56,0,35.9336,19.9912,62.7571,19.9912,107.5475S332.479,609.9106,332.479,638.7586s7.5916,149.8073,167.2679,149.8073S667.521,683.2959,667.521,642.5544c0-40.4884.0261-185.0366-49.0923-270.7665C576.0131,304.982,558.4552,304.982,492.4084,304.982Z"/><path class="cls-4" d="M512.4,323.2018c-22.2687-12.1465-71.1079-81.4831-59.72-102.2333s29.86-7.0855,42.26,35.68"/><path class="cls-4" d="M493.1675,326.4915c5.0611-24.7991,56.6838-92.1112,79.9647-87.3032s15.4363,26.5705-21.51,51.1167"/><path d="M544.2166,435.3914c12.412,0,22.3,7.39,22.3,28.9033,0,20.6434-10.0978,28.9032-22.3,28.9032s-22.2995-12.9932-22.2995-28.9032S531.8046,435.3914,544.2166,435.3914Z"/><path d="M465.438,457.9479c-.3061,19.1354-12.701,34.5684-27.3762,34.3336s-26.6613-10.3633-26.2641-35.1917c.4139-25.8747,12.4481-34.5723,27.3763-34.3335S465.7441,438.8125,465.438,457.9479Z"/></g></g></g></svg>